<svg width="34" height="35" viewBox="0 0 34 35" fill="none" xmlns="http://www.w3.org/2000/svg">
<path fill-rule="evenodd" clip-rule="evenodd" d="M26.9167 16.5437C30.1878 16.5437 32.2335 20.0853 30.5972 22.9187C30.3719 23.3089 30.0859 23.6609 29.75 23.9613V30.9809C29.75 31.1017 29.7191 31.2205 29.6603 31.326C29.6014 31.4315 29.5166 31.5201 29.4138 31.5836C29.311 31.6471 29.1937 31.6832 29.0731 31.6885C28.9524 31.6939 28.8324 31.6683 28.7244 31.6142L26.9167 30.7103L25.109 31.6142C25.0011 31.6683 24.881 31.6939 24.7603 31.6885C24.6397 31.6832 24.5224 31.6471 24.4196 31.5836C24.3168 31.5201 24.232 31.4315 24.1731 31.326C24.1143 31.2205 24.0834 31.1017 24.0834 30.9809V23.9613C21.6453 21.7797 22.4825 17.7776 25.5907 16.7562C26.0185 16.6159 26.4662 16.5437 26.9167 16.5437ZM17 13.7103H8.50004C8.13896 13.7107 7.79166 13.849 7.5291 14.0969C7.26654 14.3447 7.10854 14.6835 7.08738 15.044C7.06622 15.4044 7.1835 15.7594 7.41525 16.0363C7.647 16.3131 7.97574 16.4911 8.33429 16.5337L8.50004 16.5437H17C17.3611 16.5433 17.7084 16.405 17.971 16.1571C18.2335 15.9093 18.3915 15.5705 18.4127 15.21C18.4339 14.8496 18.3166 14.4946 18.0848 14.2177C17.8531 13.9408 17.5243 13.7629 17.1658 13.7202L17 13.7103ZM11.3334 19.377H8.50004C8.12432 19.377 7.76398 19.5262 7.49831 19.7919C7.23263 20.0576 7.08337 20.4179 7.08337 20.7937C7.08337 21.1694 7.23263 21.5297 7.49831 21.7954C7.76398 22.0611 8.12432 22.2103 8.50004 22.2103H11.3334C11.7091 22.2103 12.0694 22.0611 12.3351 21.7954C12.6008 21.5297 12.75 21.1694 12.75 20.7937C12.75 20.4179 12.6008 20.0576 12.3351 19.7919C12.0694 19.5262 11.7091 19.377 11.3334 19.377Z" fill="#FF5758"/>
<path opacity="0.3" fill-rule="evenodd" clip-rule="evenodd" d="M28.3334 6.62695C29.0848 6.62695 29.8055 6.92546 30.3368 7.45682C30.8682 7.98817 31.1667 8.70884 31.1667 9.46029V15.127C26.8048 11.8559 20.536 14.5334 19.8844 19.9465C19.6661 21.758 20.1553 23.5839 21.25 25.0436V29.2936H5.66671C4.91526 29.2936 4.19459 28.9951 3.66324 28.4638C3.13188 27.9324 2.83337 27.2117 2.83337 26.4603V9.46029C2.83337 8.70884 3.13188 7.98817 3.66324 7.45682C4.19459 6.92546 4.91526 6.62695 5.66671 6.62695H28.3334Z" fill="#FF5758"/>
</svg>
