<svg width="34" height="35" viewBox="0 0 34 35" fill="none" xmlns="http://www.w3.org/2000/svg">
<g clip-path="url(#clip0_256_1872)">
<path d="M34 9.63033C34 9.42196 33.959 9.21564 33.8792 9.02314C33.7995 8.83063 33.6826 8.65572 33.5353 8.50838C33.3879 8.36105 33.213 8.24418 33.0205 8.16444C32.828 8.0847 32.6217 8.04366 32.4133 8.04366H27.625C27.4371 8.04366 27.257 7.96903 27.1241 7.83619C26.9913 7.70336 26.9167 7.52319 26.9167 7.33533V2.54699C26.9167 2.12618 26.7495 1.72261 26.4519 1.42505C26.1544 1.12749 25.7508 0.960327 25.33 0.960327L20.0033 0.960327C19.5825 0.960327 19.1789 1.12749 18.8814 1.42505C18.5838 1.72261 18.4167 2.12618 18.4167 2.54699V7.33533C18.4167 7.52319 18.342 7.70336 18.2092 7.83619C18.0764 7.96903 17.8962 8.04366 17.7083 8.04366H12.92C12.7116 8.04366 12.5053 8.0847 12.3128 8.16444C12.1203 8.24418 11.9454 8.36105 11.7981 8.50838C11.6507 8.65572 11.5338 8.83063 11.4541 9.02314C11.3744 9.21564 11.3333 9.42196 11.3333 9.63033V14.957C11.3333 15.3778 11.5005 15.7814 11.7981 16.0789C12.0956 16.3765 12.4992 16.5437 12.92 16.5437H17.7083C17.8962 16.5437 18.0764 16.6183 18.2092 16.7511C18.342 16.884 18.4167 17.0641 18.4167 17.252V22.0403C18.4167 22.4611 18.5838 22.8647 18.8814 23.1623C19.1789 23.4598 19.5825 23.627 20.0033 23.627H25.33C25.7508 23.627 26.1544 23.4598 26.4519 23.1623C26.7495 22.8647 26.9167 22.4611 26.9167 22.0403V17.252C26.9167 17.0641 26.9913 16.884 27.1241 16.7511C27.257 16.6183 27.4371 16.5437 27.625 16.5437H32.4133C32.8341 16.5437 33.2377 16.3765 33.5353 16.0789C33.8328 15.7814 34 15.3778 34 14.957V9.63033ZM1.41667 21.8562C1.04094 21.8562 0.680609 22.0054 0.414932 22.2711C0.149256 22.5368 0 22.8971 0 23.2728L0 33.5437C0 33.9194 0.149256 34.2797 0.414932 34.5454C0.680609 34.8111 1.04094 34.9603 1.41667 34.9603C1.79239 34.9603 2.15272 34.8111 2.4184 34.5454C2.68408 34.2797 2.83333 33.9194 2.83333 33.5437V23.2728C2.83333 22.8971 2.68408 22.5368 2.4184 22.2711C2.15272 22.0054 1.79239 21.8562 1.41667 21.8562ZM21.9583 28.5853H9.03833C8.91266 28.6013 8.78503 28.5902 8.66394 28.553C8.54285 28.5158 8.43107 28.4533 8.33603 28.3695C8.24099 28.2857 8.16486 28.1827 8.11272 28.0673C8.06058 27.9518 8.03361 27.8266 8.03361 27.6999C8.03361 27.5732 8.06058 27.448 8.11272 27.3326C8.16486 27.2171 8.24099 27.1141 8.33603 27.0303C8.43107 26.9466 8.54285 26.884 8.66394 26.8468C8.78503 26.8096 8.91266 26.7986 9.03833 26.8145H12.6083C12.8422 26.8143 13.0723 26.7562 13.2782 26.6455C13.4842 26.5347 13.6595 26.3747 13.7885 26.1797C13.9176 25.9847 13.9964 25.7608 14.0179 25.528C14.0393 25.2952 14.0029 25.0606 13.9117 24.8453C13.669 24.2725 13.2626 23.7841 12.7434 23.4414C12.2242 23.0986 11.6154 22.9168 10.9933 22.9187H4.95833C4.77047 22.9187 4.5903 22.9933 4.45747 23.1261C4.32463 23.259 4.25 23.4391 4.25 23.627V32.8353C4.25 33.0232 4.32463 33.2034 4.45747 33.3362C4.5903 33.469 4.77047 33.5437 4.95833 33.5437H20.2017C20.6184 33.5437 21.031 33.4616 21.416 33.3021C21.8011 33.1426 22.1509 32.9089 22.4456 32.6142C22.7402 32.3195 22.974 31.9697 23.1334 31.5847C23.2929 31.1997 23.375 30.7871 23.375 30.3703V30.002C23.375 29.6263 23.2257 29.2659 22.9601 29.0003C22.6944 28.7346 22.3341 28.5853 21.9583 28.5853Z" fill="#FF5758"/>
</g>
<defs>
<clipPath id="clip0_256_1872">
<rect width="34" height="34" fill="white" transform="translate(0 0.960327)"/>
</clipPath>
</defs>
</svg>
