<svg width="34" height="34" viewBox="0 0 34 34" fill="none" xmlns="http://www.w3.org/2000/svg">
<path d="M12.6 15.8603C11.1413 15.8603 9.74239 15.2808 8.71094 14.2494C7.67949 13.2179 7.10002 11.819 7.10002 10.3603V5.96028C7.10002 5.66854 7.21592 5.38875 7.42221 5.18246C7.6285 4.97617 7.90829 4.86028 8.20002 4.86028H9.30002C9.59176 4.86028 9.87155 4.74439 10.0778 4.5381C10.2841 4.33181 10.4 4.05202 10.4 3.76028C10.4 3.46854 10.2841 3.18875 10.0778 2.98246C9.87155 2.77617 9.59176 2.66028 9.30002 2.66028H8.20002C7.32481 2.66028 6.48544 3.00796 5.86657 3.62683C5.2477 4.2457 4.90002 5.08506 4.90002 5.96028V10.3603C4.90144 11.603 5.20447 12.8268 5.7831 13.9266C6.36173 15.0263 7.19867 15.9692 8.22202 16.6743C9.20622 17.5403 10.0043 18.5972 10.5677 19.7809C11.1312 20.9645 11.4484 22.2503 11.5 23.5603C11.5 25.6024 12.3113 27.561 13.7553 29.005C15.1993 30.449 17.1579 31.2603 19.2 31.2603C21.2422 31.2603 23.2007 30.449 24.6447 29.005C26.0888 27.561 26.9 25.6024 26.9 23.5603V22.3063C27.9369 22.0385 28.8406 21.4018 29.4417 20.5155C30.0427 19.6291 30.2999 18.554 30.165 17.4916C30.03 16.4292 29.5122 15.4525 28.7087 14.7445C27.9051 14.0366 26.871 13.646 25.8 13.646C24.7291 13.646 23.6949 14.0366 22.8914 14.7445C22.0878 15.4525 21.57 16.4292 21.4351 17.4916C21.3002 18.554 21.5573 19.6291 22.1584 20.5155C22.7594 21.4018 23.6631 22.0385 24.7 22.3063V23.5603C24.7 25.019 24.1206 26.4179 23.0891 27.4494C22.0577 28.4808 20.6587 29.0603 19.2 29.0603C17.7413 29.0603 16.3424 28.4808 15.3109 27.4494C14.2795 26.4179 13.7 25.019 13.7 23.5603C13.7544 22.2487 14.075 20.9619 14.6424 19.7781C15.2097 18.5944 16.0118 17.5383 17 16.6743C18.0193 15.9668 18.852 15.0228 19.4267 13.9232C20.0014 12.8236 20.3011 11.601 20.3 10.3603V5.96028C20.3 5.08506 19.9523 4.2457 19.3335 3.62683C18.7146 3.00796 17.8752 2.66028 17 2.66028H15.9C15.6083 2.66028 15.3285 2.77617 15.1222 2.98246C14.9159 3.18875 14.8 3.46854 14.8 3.76028C14.8 4.05202 14.9159 4.33181 15.1222 4.5381C15.3285 4.74439 15.6083 4.86028 15.9 4.86028H17C17.2918 4.86028 17.5716 4.97617 17.7778 5.18246C17.9841 5.38875 18.1 5.66854 18.1 5.96028V10.3603C18.1 11.0825 17.9578 11.7977 17.6814 12.465C17.405 13.1323 16.9998 13.7386 16.4891 14.2494C15.9784 14.7601 15.3721 15.1652 14.7048 15.4416C14.0375 15.718 13.3223 15.8603 12.6 15.8603ZM25.8 20.2603C25.2165 20.2603 24.657 20.0285 24.2444 19.6159C23.8318 19.2033 23.6 18.6438 23.6 18.0603C23.6 17.4768 23.8318 16.9172 24.2444 16.5046C24.657 16.0921 25.2165 15.8603 25.8 15.8603C26.3835 15.8603 26.9431 16.0921 27.3557 16.5046C27.7682 16.9172 28 17.4768 28 18.0603C28 18.6438 27.7682 19.2033 27.3557 19.6159C26.9431 20.0285 26.3835 20.2603 25.8 20.2603Z" fill="#FF5758"/>
</svg>
