<svg width="28" height="30" viewBox="0 0 28 30" fill="none" xmlns="http://www.w3.org/2000/svg">
<path d="M11.4791 5.73254L11.7171 8.8322L12.0713 8.59704C12.2652 8.46763 12.4243 8.29234 12.5342 8.08673C12.6442 7.88112 12.7017 7.65154 12.7017 7.41837V1.85087C12.7017 1.47515 12.8509 1.11481 13.1166 0.849136C13.3823 0.58346 13.7426 0.434204 14.1184 0.434204C14.4941 0.434204 14.8544 0.58346 15.1201 0.849136C15.3858 1.11481 15.535 1.47515 15.535 1.85087V7.41837C15.535 7.65154 15.5925 7.88112 15.7025 8.08673C15.8124 8.29234 15.9715 8.46763 16.1654 8.59704L16.5196 8.8322L16.7576 5.73254C16.929 3.5027 19.4946 2.34104 21.2824 3.68262L22.1112 4.30312C24.1855 5.85929 25.5677 8.16607 25.9617 10.7291L27.4917 20.6727C27.9989 23.9693 24.6839 26.5391 21.6168 25.2259L20.1222 24.5841C18.763 24.0014 17.6203 23.0079 16.8544 21.7429C16.0884 20.478 15.7375 19.005 15.8509 17.5305L16.2703 12.0721L14.5944 10.953C14.4272 10.8416 14.2681 10.7185 14.1184 10.5846C13.9686 10.7185 13.8095 10.8416 13.6424 10.953L11.9664 12.0721L12.3858 17.5305C12.4995 19.0052 12.1488 20.4785 11.3828 21.7438C10.6168 23.009 9.47392 24.0027 8.11452 24.5855L6.61852 25.2259C3.55285 26.5391 0.236438 23.9693 0.743605 20.6727L2.2736 10.7291C2.66791 8.16585 4.05068 5.85904 6.12552 4.30312L6.95285 3.68262C8.7421 2.34104 11.3077 3.5027 11.4791 5.73254Z" fill="#FF5758"/>
</svg>
