<svg width="35" height="35" viewBox="0 0 35 35" fill="none" xmlns="http://www.w3.org/2000/svg">
<path d="M20.1456 4.06305C19.093 5.11564 18.5476 6.95022 18.9443 8.38672C19.1553 9.14605 19.1893 10.0655 18.6326 10.6236L10.5576 18.6986C9.99943 19.2554 9.08001 19.2214 8.31926 19.0103C6.88418 18.6136 5.0496 19.1591 3.99701 20.2116C3.66558 20.543 3.40266 20.9363 3.22326 21.3693C3.04385 21.8022 2.95148 22.2663 2.95142 22.7349C2.95128 23.6814 3.32714 24.5892 3.9963 25.2585C4.66547 25.9279 5.57312 26.304 6.51959 26.3041C7.46607 26.3042 8.37383 25.9284 9.04318 25.2592C8.37402 25.9286 7.99816 26.8363 7.99829 27.7828C7.99842 28.7293 8.37454 29.6369 9.04389 30.3061C9.71324 30.9753 10.621 31.3511 11.5675 31.351C12.5139 31.3509 13.4216 30.9747 14.0908 30.3054C15.1433 29.2528 15.6888 27.4182 15.2921 25.9817C15.081 25.2224 15.047 24.303 15.6038 23.7448L23.6788 15.6698C24.2369 15.1131 25.1563 15.1471 25.9171 15.3581C27.3522 15.7548 29.1868 15.2094 30.2393 14.1568C30.9087 13.4876 31.2848 12.58 31.2849 11.6335C31.2851 10.687 30.9092 9.77928 30.2401 9.10993C29.9087 8.7785 29.5153 8.51558 29.0824 8.33617C28.6495 8.15677 28.1854 8.0644 27.7168 8.06433C26.7703 8.0642 25.8625 8.44006 25.1932 9.10922C25.8623 8.43987 26.2382 7.53211 26.2381 6.58563C26.2379 5.63916 25.8618 4.73151 25.1925 4.06234C24.5231 3.39318 23.6154 3.01732 22.6689 3.01746C21.7224 3.01759 20.8148 3.3937 20.1456 4.06305Z" fill="#FF5758"/>
</svg>
