<svg width="35" height="35" viewBox="0 0 35 35" fill="none" xmlns="http://www.w3.org/2000/svg">
<path fill-rule="evenodd" clip-rule="evenodd" d="M15.4685 5.00083C16.0813 4.62992 16.784 4.43384 17.5004 4.43384C18.2167 4.43384 18.9194 4.62992 19.5322 5.00083L20.9751 5.88341C22.9995 7.12087 25.3051 7.39641 27.6214 7.67408C28.3701 7.76403 29.1195 7.85328 29.8611 7.97583C29.8611 7.97583 29.8774 9.27491 29.8604 9.86424L29.7124 14.9295C29.5849 19.2737 27.6533 23.3927 24.3397 26.3861C22.7764 27.7978 21.1593 29.0735 19.3013 30.1332C18.7537 30.4427 18.1398 30.6162 17.5112 30.6393C16.8826 30.6623 16.2576 30.5342 15.6888 30.2657C13.5433 29.2457 11.6435 27.9522 9.90879 26.3861C6.59521 23.3927 4.66359 19.2737 4.5368 14.9295L4.38946 9.88053C4.37175 9.2827 4.38946 7.97583 4.38946 7.97583C4.99155 7.90499 5.60496 7.8462 6.22334 7.78741C8.95255 7.52816 11.7724 7.26041 14.0858 5.84658L15.4685 5.00083ZM15.7015 15.7675V10.8092H18.5349V15.7675H23.4932V18.6008H18.5349V23.5592H15.7015V18.6008H10.7432V15.7675H15.7015Z" fill="#FF5758"/>
</svg>
