<svg width="35" height="35" viewBox="0 0 35 35" fill="none" xmlns="http://www.w3.org/2000/svg">
<path d="M22.4519 17.5561C21.8038 16.3821 21.009 15.4311 20.2122 14.7681C19.2584 15.4759 18.1029 15.8594 16.9152 15.8625C15.7266 15.8593 14.5701 15.4758 13.6151 14.7681C12.8182 15.4322 12.0235 16.3831 11.3732 17.5551C9.8613 20.2772 9.69448 23.0694 11.0014 23.7951C11.5857 24.1213 12.1977 23.878 12.831 23.2681C12.7134 23.9249 12.6543 24.5909 12.6546 25.2582C12.6546 28.3734 13.8659 30.8969 15.3565 30.8969C16.2554 30.8969 16.7006 29.9778 16.9142 28.57C17.1267 29.9778 17.5729 30.8969 18.4675 30.8969C19.9614 30.8969 21.1716 28.3734 21.1716 25.2582C21.1716 24.5569 21.1079 23.8876 20.9931 23.2681C21.6274 23.878 22.2394 24.1213 22.8249 23.7951C24.1296 23.0705 23.9617 20.2782 22.4498 17.554L22.4519 17.5561ZM16.9142 14.8011C17.5114 14.8008 18.1027 14.683 18.6543 14.4543C19.206 14.2256 19.7071 13.8904 20.1293 13.468C20.5514 13.0456 20.8862 12.5441 21.1145 11.9923C21.3429 11.4405 21.4603 10.8491 21.4601 10.252C21.4599 9.65478 21.342 9.06348 21.1133 8.51183C20.8846 7.96018 20.5494 7.45899 20.127 7.03686C19.7046 6.61473 19.2032 6.27994 18.6514 6.0516C18.0996 5.82326 17.5082 5.70585 16.911 5.70605C16.3137 5.70626 15.7224 5.82411 15.1707 6.05286C14.6189 6.28162 14.1177 6.6168 13.6955 7.03927C12.8429 7.89249 12.3641 9.04947 12.3645 10.2557C12.365 11.4619 12.8445 12.6185 13.6978 13.4712C14.551 14.3238 15.708 14.8025 16.9142 14.8021V14.8011Z" fill="#FF5758"/>
</svg>
