<svg width="35" height="35" viewBox="0 0 35 35" fill="none" xmlns="http://www.w3.org/2000/svg">
<path d="M14.2847 31.3509V24.2676H11.4514V14.3509C11.4514 13.1704 11.8646 12.1669 12.691 11.3405C13.5174 10.5141 14.5209 10.1009 15.7014 10.1009C16.882 10.1009 17.8854 10.5141 18.7118 11.3405C19.5382 12.1669 19.9514 13.1704 19.9514 14.3509C20.8014 14.7051 21.4861 15.2718 22.0056 16.0509C22.525 16.8301 22.7847 17.6801 22.7847 18.6009V24.2676H18.5347V31.3509H14.2847ZM15.7014 8.68425C14.9222 8.68425 14.2555 8.40706 13.7011 7.85267C13.1467 7.29828 12.869 6.63103 12.8681 5.85092C12.8671 5.07081 13.1448 4.40403 13.7011 3.85059C14.2574 3.29714 14.9241 3.01948 15.7014 3.01759C16.4787 3.0157 17.1459 3.29337 17.7032 3.85059C18.2604 4.40781 18.5376 5.07459 18.5347 5.85092C18.5319 6.62725 18.2547 7.2945 17.7032 7.85267C17.1516 8.41084 16.4844 8.68803 15.7014 8.68425Z" fill="#FF5758"/>
</svg>
