<svg width="30" height="31" viewBox="0 0 30 31" fill="none" xmlns="http://www.w3.org/2000/svg">
<path d="M21.4931 5.97587C22.2445 5.97587 22.9652 5.67736 23.4966 5.14601C24.0279 4.61465 24.3264 3.89398 24.3264 3.14254C24.3264 2.39109 24.0279 1.67042 23.4966 1.13907C22.9652 0.607715 22.2445 0.309204 21.4931 0.309204C20.7416 0.309204 20.021 0.607715 19.4896 1.13907C18.9583 1.67042 18.6597 2.39109 18.6597 3.14254C18.6597 3.89398 18.9583 4.61465 19.4896 5.14601C20.021 5.67736 20.7416 5.97587 21.4931 5.97587ZM16.3931 25.6675L17.8097 19.4342L20.7847 22.2675V30.7675H23.6181V20.1425L20.6431 17.3092L21.4931 13.0592C22.4638 14.1715 23.6614 15.063 25.0053 15.6739C26.3493 16.2848 27.8085 16.6009 29.2848 16.6009V13.7675C26.7914 13.81 24.4681 12.5067 23.1931 10.3675L21.7764 8.10087C21.2664 7.25087 20.3598 6.6842 19.3681 6.6842C18.9431 6.6842 18.6597 6.82587 18.2348 6.82587L10.8681 9.94254V16.6009H13.7014V11.7842L16.2514 10.7925L13.9847 22.2675L7.04308 20.8509L6.47642 23.6842L16.3931 25.6675ZM3.78475 10.9342C3.40903 10.9342 3.04869 10.7849 2.78301 10.5193C2.51734 10.2536 2.36808 9.89326 2.36808 9.51754C2.36808 9.14181 2.51734 8.78148 2.78301 8.5158C3.04869 8.25013 3.40903 8.10087 3.78475 8.10087H8.03475V10.9342H3.78475ZM5.20142 5.26754C4.82569 5.26754 4.46536 5.11828 4.19968 4.85261C3.93401 4.58693 3.78475 4.22659 3.78475 3.85087C3.78475 3.47515 3.93401 3.11481 4.19968 2.84914C4.46536 2.58346 4.82569 2.4342 5.20142 2.4342H12.2847V5.26754H5.20142ZM2.36808 16.6009C1.99236 16.6009 1.63202 16.4516 1.36635 16.1859C1.10067 15.9203 0.951416 15.5599 0.951416 15.1842C0.951416 14.8085 1.10067 14.4481 1.36635 14.1825C1.63202 13.9168 1.99236 13.7675 2.36808 13.7675H8.03475V16.6009H2.36808Z" fill="#FF5758"/>
</svg>
