<svg width="35" height="35" viewBox="0 0 35 35" fill="none" xmlns="http://www.w3.org/2000/svg">
<path fill-rule="evenodd" clip-rule="evenodd" d="M16.6506 7.35389C13.6754 3.66117 8.35988 3.43891 5.11905 6.87171C2.84849 9.27675 2.25821 12.7875 3.34813 15.7676H9.15795L12.8682 8.34978L17.1182 16.8485L19.2432 12.5998L20.8271 15.7676H30.8884C31.9783 12.7876 31.388 9.27675 29.1175 6.87171C25.8766 3.43898 20.5612 3.66117 17.5858 7.35389L17.1183 7.93421L16.6506 7.35389ZM29.155 18.6009H19.4104L17.1182 23.1853L12.8682 14.6852L10.9104 18.6009H5.08153C5.09397 18.6142 5.10648 18.6276 5.11905 18.6409L17.1122 31.3445L17.1181 31.3509H17.1182L29.1174 18.6409C29.1299 18.6276 29.1424 18.6143 29.1549 18.6009" fill="#FF5758"/>
</svg>
