<svg width="35" height="35" viewBox="0 0 35 35" fill="none" xmlns="http://www.w3.org/2000/svg">
<path d="M17.1181 31.3509C24.9296 31.3509 31.2848 24.9957 31.2848 17.1842C31.2848 9.37275 24.9296 3.01758 17.1181 3.01758C9.30658 3.01758 2.95142 9.37275 2.95142 17.1842C2.95142 24.9957 9.30658 31.3509 17.1181 31.3509ZM22.0665 12.9342C22.349 12.927 22.63 12.9764 22.8931 13.0796C23.1561 13.1827 23.3959 13.3375 23.5982 13.5347C23.8005 13.732 23.9612 13.9678 24.0709 14.2281C24.1807 14.4885 24.2371 14.7682 24.237 15.0508C24.2369 15.3333 24.1803 15.613 24.0704 15.8733C23.9605 16.1336 23.7996 16.3692 23.5971 16.5664C23.3947 16.7635 23.1549 16.9181 22.8917 17.0211C22.6286 17.124 22.3475 17.1732 22.0651 17.1658C21.5134 17.1514 20.9892 16.922 20.6042 16.5267C20.2192 16.1313 20.0039 15.6012 20.004 15.0493C20.0042 14.4975 20.2199 13.9675 20.6052 13.5724C20.9905 13.1773 21.5148 12.9483 22.0665 12.9342ZM15.9734 22.7362C16.729 22.888 17.5072 22.888 18.2627 22.7362C18.6226 22.6616 18.9767 22.5515 19.3253 22.4061C19.6567 22.2644 19.9826 22.0887 20.2872 21.8847C20.5828 21.6826 20.8619 21.4517 21.1244 21.192C21.3841 20.9332 21.6151 20.6537 21.8172 20.3533L24.166 21.9357C23.5561 22.8414 22.7773 23.6211 21.8724 24.2322C20.9511 24.854 19.9168 25.2891 18.828 25.5128C17.6993 25.7402 16.5366 25.7397 15.4082 25.5114C14.3189 25.2915 13.2844 24.8566 12.3652 24.2322C11.4613 23.6183 10.6821 22.8386 10.0687 21.9343L12.4176 20.3519C12.6216 20.6522 12.852 20.9309 13.1089 21.1877C13.8917 21.973 14.8877 22.5114 15.9734 22.7362ZM12.1597 12.9342C12.4389 12.9343 12.7153 12.9894 12.9732 13.0963C13.231 13.2032 13.4653 13.3599 13.6626 13.5574C13.86 13.7548 14.0165 13.9892 14.1232 14.2471C14.23 14.5051 14.2848 14.7815 14.2847 15.0607C14.2847 15.3398 14.2296 15.6162 14.1227 15.8741C14.0158 16.1319 13.8591 16.3662 13.6616 16.5636C13.4642 16.7609 13.2298 16.9174 12.9719 17.0241C12.7139 17.1309 12.4375 17.1858 12.1583 17.1857C11.5946 17.1855 11.054 16.9613 10.6554 16.5626C10.2569 16.1638 10.0331 15.623 10.0333 15.0592C10.0335 14.4955 10.2577 13.9549 10.6564 13.5563C11.0552 13.1578 11.596 12.9341 12.1597 12.9342Z" fill="#FF5758"/>
</svg>
