<svg width="35" height="35" viewBox="0 0 35 35" fill="none" xmlns="http://www.w3.org/2000/svg">
<path d="M5.78491 20.0175H9.17783C9.59433 20.0175 10.0052 20.111 10.3777 20.2923L13.2706 21.692C13.6432 21.8719 14.054 21.9654 14.4719 21.9654H15.9481C17.3761 21.9654 18.5349 23.086 18.5349 24.4686C18.5349 24.5253 18.4967 24.5735 18.4414 24.5891L14.8417 25.585C14.1957 25.7634 13.507 25.701 12.9037 25.4093L9.81108 23.9133M11.4516 11.2894C11.4516 8.32573 14.1376 5.39607 16.0217 3.70598C16.518 3.26174 17.1606 3.01611 17.8266 3.01611C18.4926 3.01611 19.1352 3.26174 19.6314 3.70598C21.5156 5.39748 24.2016 8.32432 24.2016 11.2908C24.2016 14.195 21.7876 17.1841 17.8266 17.1841C13.8656 17.1841 11.4516 14.195 11.4516 11.2894Z" stroke="#FF5758" stroke-width="1.5" stroke-linecap="round" stroke-linejoin="round"/>
<path d="M18.5349 23.5592L25.0417 21.5602C25.6081 21.3864 26.215 21.396 26.7757 21.5875C27.3364 21.7791 27.8223 22.1429 28.164 22.627C28.6867 23.3495 28.4742 24.3865 27.7121 24.8257L17.0658 30.9697C16.7329 31.1623 16.3643 31.2852 15.9824 31.3307C15.6005 31.3763 15.2134 31.3436 14.8445 31.2347L5.78491 28.5458" stroke="#FF5758" stroke-width="1.5" stroke-linecap="round" stroke-linejoin="round"/>
</svg>
